%FSLAX44Y44*%
%MOMM*%
G71*
G01*
G75*
G04 Layer_Color=8388736*
%ADD10C,0.6000*%
%ADD11C,0.2540*%
%ADD12R,1.1000X0.7000*%
%ADD13R,1.0000X1.8000*%
%ADD14R,1.0000X1.8000*%
%ADD15R,0.7000X1.1000*%
%ADD16R,1.9000X2.5000*%
%ADD17R,1.8000X1.0000*%
%ADD18R,1.8000X1.0000*%
%ADD19R,2.4000X5.5000*%
%ADD20R,2.0000X0.6500*%
%ADD21R,2.0000X1.1000*%
%ADD22R,0.8000X1.1000*%
%ADD23C,0.4000*%
%ADD24C,1.0000*%
%ADD25C,0.2000*%
%ADD26C,3.5000*%
%ADD27C,0.2032*%
%ADD28C,0.1500*%
%ADD29C,0.2800*%
%ADD30R,1.3032X0.9032*%
%ADD31R,1.2032X2.0032*%
%ADD32R,1.2032X2.0032*%
%ADD33R,0.9032X1.3032*%
%ADD34R,2.1032X2.7032*%
%ADD35R,2.0032X1.2032*%
%ADD36R,2.0032X1.2032*%
%ADD37R,2.6032X5.7032*%
%ADD38R,2.2032X0.8532*%
%ADD39R,2.1016X1.2016*%
%ADD40R,0.9016X1.2016*%
%ADD41C,3.7032*%
%ADD42R,0.0762X0.0762*%
D25*
X0Y0D02*
X400000D01*
Y400000D01*
X0D02*
X400000D01*
X0Y0D02*
Y400000D01*
D30*
X322072Y201010D02*
D03*
Y186010D02*
D03*
X344646D02*
D03*
Y201010D02*
D03*
X364966Y186010D02*
D03*
Y201010D02*
D03*
X344646Y154292D02*
D03*
Y169292D02*
D03*
X322072D02*
D03*
Y154292D02*
D03*
X300736Y226554D02*
D03*
Y241554D02*
D03*
D31*
X84826Y111412D02*
D03*
Y79916D02*
D03*
D32*
X112826Y111412D02*
D03*
Y79916D02*
D03*
D33*
X288530Y145448D02*
D03*
X303530D02*
D03*
X288530Y167292D02*
D03*
X303530D02*
D03*
X201944Y249016D02*
D03*
X186944D02*
D03*
X154432Y248666D02*
D03*
X169432D02*
D03*
D34*
X190014Y153876D02*
D03*
X153014D02*
D03*
D35*
X163448Y215414D02*
D03*
D36*
Y187414D02*
D03*
D37*
X76322Y169356D02*
D03*
X115322D02*
D03*
D38*
X256108Y226410D02*
D03*
Y213710D02*
D03*
Y201010D02*
D03*
Y188310D02*
D03*
X202108D02*
D03*
Y201010D02*
D03*
Y213710D02*
D03*
Y226410D02*
D03*
D39*
X147908Y283036D02*
D03*
D40*
X128908D02*
D03*
D41*
X185928Y88916D02*
D03*
X32512D02*
D03*
X148844Y341376D02*
D03*
X356362Y263398D02*
D03*
X248920Y341376D02*
D03*
D42*
X30000Y370000D02*
D03*
X370000D02*
D03*
Y30000D02*
D03*
X30000D02*
D03*
M02*
