%FSLAX44Y44*%
%MOMM*%
G71*
G01*
G75*
G04 Layer_Color=65535*
%ADD10C,0.6000*%
%ADD11C,0.2540*%
%ADD12R,1.1000X0.7000*%
%ADD13R,1.0000X1.8000*%
%ADD14R,1.0000X1.8000*%
%ADD15R,0.7000X1.1000*%
%ADD16R,1.9000X2.5000*%
%ADD17R,1.8000X1.0000*%
%ADD18R,1.8000X1.0000*%
%ADD19R,2.4000X5.5000*%
%ADD20R,2.0000X0.6500*%
%ADD21R,2.0000X1.1000*%
%ADD22R,0.8000X1.1000*%
%ADD23C,0.4000*%
%ADD24C,1.0000*%
%ADD25C,0.2000*%
%ADD26C,3.5000*%
%ADD27C,0.2032*%
%ADD28C,0.1500*%
%ADD29C,0.2800*%
D11*
X207065Y88916D02*
G03*
X207065Y88916I-21137J0D01*
G01*
X53649D02*
G03*
X53649Y88916I-21137J0D01*
G01*
X169981Y341376D02*
G03*
X169981Y341376I-21137J0D01*
G01*
X377499Y263398D02*
G03*
X377499Y263398I-21137J0D01*
G01*
X270057Y341376D02*
G03*
X270057Y341376I-21137J0D01*
G01*
D23*
X203904Y235300D02*
G03*
X203904Y235300I-1796J0D01*
G01*
D25*
X76826Y99412D02*
X120826D01*
Y123412D01*
X76826D02*
X120826D01*
X76826Y99412D02*
Y123412D01*
Y67916D02*
X120826D01*
Y91916D01*
X76826D02*
X120826D01*
X76826Y67916D02*
Y91916D01*
X151448Y179414D02*
Y223414D01*
Y179414D02*
X175448D01*
Y223414D01*
X151448D02*
X175448D01*
X0Y0D02*
X400000D01*
Y400000D01*
X0D02*
X400000D01*
X0Y0D02*
Y400000D01*
D27*
X314072Y180010D02*
X330072D01*
Y207010D01*
X314072D02*
X330072D01*
X314072Y180010D02*
Y207010D01*
X336646D02*
X352646D01*
X336646Y180010D02*
Y207010D01*
Y180010D02*
X352646D01*
Y207010D01*
X356966D02*
X372966D01*
X356966Y180010D02*
Y207010D01*
Y180010D02*
X372966D01*
Y207010D01*
X309530Y137448D02*
Y153448D01*
X282530D02*
X309530D01*
X282530Y137448D02*
Y153448D01*
Y137448D02*
X309530D01*
X336646Y175292D02*
X352646D01*
X336646Y148292D02*
Y175292D01*
Y148292D02*
X352646D01*
Y175292D01*
X172264Y156626D02*
X175764D01*
X176014Y156376D01*
Y154126D02*
Y156376D01*
X174514Y151626D02*
X174764Y151376D01*
X175764D01*
X173014Y154126D02*
X175764Y151376D01*
X171264Y154126D02*
X173014D01*
X171264D02*
X175514Y158376D01*
X177514D01*
Y147876D02*
Y158376D01*
X164764Y139906D02*
Y167846D01*
X165764Y153876D02*
X176764Y148876D01*
Y159876D01*
X167764Y153876D02*
X176764Y157876D01*
X168764Y153876D02*
X175764Y151876D01*
X174764Y155876D02*
X175764Y151876D01*
X172764Y153876D02*
X174764Y155876D01*
X140514Y168876D02*
X202514D01*
X140514Y138876D02*
X202514Y138876D01*
X140514Y138876D02*
Y168876D01*
X202514Y138876D02*
Y168876D01*
X164764Y153876D02*
X178764Y161876D01*
X164764Y153876D02*
X178764Y145876D01*
Y161876D01*
X309530Y159292D02*
Y175292D01*
X282530D02*
X309530D01*
X282530Y159292D02*
Y175292D01*
Y159292D02*
X309530D01*
X314072Y148292D02*
X330072D01*
Y175292D01*
X314072D02*
X330072D01*
X314072Y148292D02*
Y175292D01*
X180944Y241016D02*
Y257016D01*
Y241016D02*
X207944D01*
Y257016D01*
X180944D02*
X207944D01*
X60822Y138876D02*
X130822D01*
Y199836D01*
X60822D02*
X130822D01*
X60822Y138876D02*
Y199836D01*
X292736Y247554D02*
X308736D01*
X292736Y220554D02*
Y247554D01*
Y220554D02*
X308736D01*
Y247554D01*
X215108Y182360D02*
Y232360D01*
X243108D01*
Y182360D02*
Y232360D01*
X215108Y182360D02*
X243108D01*
X216408D02*
Y232360D01*
X217678Y182360D02*
Y232360D01*
X218948Y182360D02*
Y232360D01*
X148432Y256666D02*
X175432D01*
Y240666D02*
Y256666D01*
X148432Y240666D02*
X175432D01*
X148432D02*
Y256666D01*
X102870Y287018D02*
Y276860D01*
Y287018D02*
X106256D01*
X107707Y286534D01*
X108674Y285567D01*
X109158Y284599D01*
X109642Y283148D01*
Y280730D01*
X109158Y279279D01*
X108674Y278311D01*
X107707Y277344D01*
X106256Y276860D01*
X102870D01*
X112399Y284599D02*
Y285083D01*
X112883Y286050D01*
X113366Y286534D01*
X114334Y287018D01*
X116269D01*
X117236Y286534D01*
X117720Y286050D01*
X118203Y285083D01*
Y284116D01*
X117720Y283148D01*
X116752Y281697D01*
X111915Y276860D01*
X118687D01*
X137812Y251325D02*
X137328Y252293D01*
X136361Y253260D01*
X135393Y253744D01*
X133458D01*
X132491Y253260D01*
X131523Y252293D01*
X131040Y251325D01*
X130556Y249874D01*
Y247456D01*
X131040Y246005D01*
X131523Y245037D01*
X132491Y244070D01*
X133458Y243586D01*
X135393D01*
X136361Y244070D01*
X137328Y245037D01*
X137812Y246005D01*
X140666Y251809D02*
X141633Y252293D01*
X143084Y253744D01*
Y243586D01*
X137684Y221061D02*
X137200Y222029D01*
X136233Y222996D01*
X135265Y223480D01*
X133330D01*
X132363Y222996D01*
X131396Y222029D01*
X130912Y221061D01*
X130428Y219610D01*
Y217192D01*
X130912Y215741D01*
X131396Y214773D01*
X132363Y213806D01*
X133330Y213322D01*
X135265D01*
X136233Y213806D01*
X137200Y214773D01*
X137684Y215741D01*
X141505Y223480D02*
X146826D01*
X143924Y219610D01*
X145375D01*
X146342Y219126D01*
X146826Y218643D01*
X147310Y217192D01*
Y216224D01*
X146826Y214773D01*
X145858Y213806D01*
X144407Y213322D01*
X142956D01*
X141505Y213806D01*
X141021Y214289D01*
X140538Y215257D01*
X269130Y170205D02*
X268646Y171173D01*
X267679Y172140D01*
X266711Y172624D01*
X264776D01*
X263809Y172140D01*
X262841Y171173D01*
X262358Y170205D01*
X261874Y168754D01*
Y166336D01*
X262358Y164885D01*
X262841Y163917D01*
X263809Y162950D01*
X264776Y162466D01*
X266711D01*
X267679Y162950D01*
X268646Y163917D01*
X269130Y164885D01*
X277788Y172624D02*
X272951D01*
X272467Y168270D01*
X272951Y168754D01*
X274402Y169238D01*
X275853D01*
X277304Y168754D01*
X278272Y167787D01*
X278755Y166336D01*
Y165368D01*
X278272Y163917D01*
X277304Y162950D01*
X275853Y162466D01*
X274402D01*
X272951Y162950D01*
X272467Y163433D01*
X271984Y164401D01*
X269130Y148361D02*
X268646Y149329D01*
X267679Y150296D01*
X266711Y150780D01*
X264776D01*
X263809Y150296D01*
X262841Y149329D01*
X262358Y148361D01*
X261874Y146910D01*
Y144492D01*
X262358Y143041D01*
X262841Y142073D01*
X263809Y141106D01*
X264776Y140622D01*
X266711D01*
X267679Y141106D01*
X268646Y142073D01*
X269130Y143041D01*
X277788Y149329D02*
X277304Y150296D01*
X275853Y150780D01*
X274886D01*
X273435Y150296D01*
X272467Y148845D01*
X271984Y146426D01*
Y144008D01*
X272467Y142073D01*
X273435Y141106D01*
X274886Y140622D01*
X275369D01*
X276821Y141106D01*
X277788Y142073D01*
X278272Y143524D01*
Y144008D01*
X277788Y145459D01*
X276821Y146426D01*
X275369Y146910D01*
X274886D01*
X273435Y146426D01*
X272467Y145459D01*
X271984Y144008D01*
X364856Y218655D02*
X364372Y219623D01*
X363405Y220590D01*
X362437Y221074D01*
X360502D01*
X359535Y220590D01*
X358567Y219623D01*
X358084Y218655D01*
X357600Y217204D01*
Y214786D01*
X358084Y213335D01*
X358567Y212367D01*
X359535Y211400D01*
X360502Y210916D01*
X362437D01*
X363405Y211400D01*
X364372Y212367D01*
X364856Y213335D01*
X374481Y221074D02*
X369644Y210916D01*
X367709Y221074D02*
X374481D01*
X131512Y114579D02*
X131028Y115547D01*
X130060Y116514D01*
X129093Y116998D01*
X127158D01*
X126191Y116514D01*
X125223Y115547D01*
X124740Y114579D01*
X124256Y113128D01*
Y110710D01*
X124740Y109259D01*
X125223Y108291D01*
X126191Y107324D01*
X127158Y106840D01*
X129093D01*
X130060Y107324D01*
X131028Y108291D01*
X131512Y109259D01*
X136784Y116998D02*
X135333Y116514D01*
X134849Y115547D01*
Y114579D01*
X135333Y113612D01*
X136300Y113128D01*
X138235Y112645D01*
X139686Y112161D01*
X140654Y111193D01*
X141137Y110226D01*
Y108775D01*
X140654Y107807D01*
X140170Y107324D01*
X138719Y106840D01*
X136784D01*
X135333Y107324D01*
X134849Y107807D01*
X134365Y108775D01*
Y110226D01*
X134849Y111193D01*
X135817Y112161D01*
X137268Y112645D01*
X139202Y113128D01*
X140170Y113612D01*
X140654Y114579D01*
Y115547D01*
X140170Y116514D01*
X138719Y116998D01*
X136784D01*
X131766Y83337D02*
X131282Y84305D01*
X130314Y85272D01*
X129347Y85756D01*
X127412D01*
X126445Y85272D01*
X125477Y84305D01*
X124994Y83337D01*
X124510Y81886D01*
Y79468D01*
X124994Y78017D01*
X125477Y77049D01*
X126445Y76082D01*
X127412Y75598D01*
X129347D01*
X130314Y76082D01*
X131282Y77049D01*
X131766Y78017D01*
X140908Y82370D02*
X140424Y80919D01*
X139457Y79951D01*
X138005Y79468D01*
X137522D01*
X136071Y79951D01*
X135103Y80919D01*
X134619Y82370D01*
Y82854D01*
X135103Y84305D01*
X136071Y85272D01*
X137522Y85756D01*
X138005D01*
X139457Y85272D01*
X140424Y84305D01*
X140908Y82370D01*
Y79951D01*
X140424Y77533D01*
X139457Y76082D01*
X138005Y75598D01*
X137038D01*
X135587Y76082D01*
X135103Y77049D01*
X166688Y135840D02*
Y125682D01*
Y135840D02*
X170074D01*
X171525Y135356D01*
X172492Y134389D01*
X172976Y133421D01*
X173460Y131970D01*
Y129552D01*
X172976Y128101D01*
X172492Y127133D01*
X171525Y126166D01*
X170074Y125682D01*
X166688D01*
X175733Y133905D02*
X176701Y134389D01*
X178152Y135840D01*
Y125682D01*
X213360Y254252D02*
Y244094D01*
Y254252D02*
X217713D01*
X219165Y253768D01*
X219648Y253284D01*
X220132Y252317D01*
Y251350D01*
X219648Y250382D01*
X219165Y249898D01*
X217713Y249415D01*
X213360D01*
X216746D02*
X220132Y244094D01*
X222405Y252317D02*
X223373Y252801D01*
X224824Y254252D01*
Y244094D01*
X314452Y143114D02*
Y132956D01*
Y143114D02*
X318805D01*
X320257Y142630D01*
X320740Y142146D01*
X321224Y141179D01*
Y140211D01*
X320740Y139244D01*
X320257Y138760D01*
X318805Y138277D01*
X314452D01*
X317838D02*
X321224Y132956D01*
X323981Y140695D02*
Y141179D01*
X324465Y142146D01*
X324948Y142630D01*
X325916Y143114D01*
X327851D01*
X328818Y142630D01*
X329302Y142146D01*
X329785Y141179D01*
Y140211D01*
X329302Y139244D01*
X328334Y137793D01*
X323497Y132956D01*
X330269D01*
X356076Y167258D02*
Y157100D01*
Y167258D02*
X360429D01*
X361880Y166774D01*
X362364Y166290D01*
X362848Y165323D01*
Y164356D01*
X362364Y163388D01*
X361880Y162905D01*
X360429Y162421D01*
X356076D01*
X359462D02*
X362848Y157100D01*
X366089Y167258D02*
X371409D01*
X368507Y163388D01*
X369958D01*
X370926Y162905D01*
X371409Y162421D01*
X371893Y160970D01*
Y160002D01*
X371409Y158551D01*
X370442Y157584D01*
X368991Y157100D01*
X367540D01*
X366089Y157584D01*
X365605Y158068D01*
X365121Y159035D01*
X337026Y221328D02*
Y211170D01*
Y221328D02*
X341379D01*
X342831Y220844D01*
X343314Y220360D01*
X343798Y219393D01*
Y218426D01*
X343314Y217458D01*
X342831Y216975D01*
X341379Y216491D01*
X337026D01*
X340412D02*
X343798Y211170D01*
X350908Y221328D02*
X346071Y214556D01*
X353327D01*
X350908Y221328D02*
Y211170D01*
X314452Y221314D02*
Y211156D01*
Y221314D02*
X318805D01*
X320257Y220830D01*
X320740Y220346D01*
X321224Y219379D01*
Y218411D01*
X320740Y217444D01*
X320257Y216960D01*
X318805Y216477D01*
X314452D01*
X317838D02*
X321224Y211156D01*
X329302Y221314D02*
X324465D01*
X323981Y216960D01*
X324465Y217444D01*
X325916Y217928D01*
X327367D01*
X328818Y217444D01*
X329785Y216477D01*
X330269Y215025D01*
Y214058D01*
X329785Y212607D01*
X328818Y211639D01*
X327367Y211156D01*
X325916D01*
X324465Y211639D01*
X323981Y212123D01*
X323497Y213091D01*
X245000Y312031D02*
X244516Y312999D01*
X243549Y313966D01*
X242581Y314450D01*
X240646D01*
X239679Y313966D01*
X238711Y312999D01*
X238228Y312031D01*
X237744Y310580D01*
Y308162D01*
X238228Y306710D01*
X238711Y305743D01*
X239679Y304776D01*
X240646Y304292D01*
X242581D01*
X243549Y304776D01*
X244516Y305743D01*
X245000Y306710D01*
Y308162D01*
X242581D02*
X245000D01*
X247321Y314450D02*
Y304292D01*
Y314450D02*
X254093Y304292D01*
Y314450D02*
Y304292D01*
X256899Y314450D02*
Y304292D01*
Y314450D02*
X260285D01*
X261736Y313966D01*
X262703Y312999D01*
X263187Y312031D01*
X263671Y310580D01*
Y308162D01*
X263187Y306710D01*
X262703Y305743D01*
X261736Y304776D01*
X260285Y304292D01*
X256899D01*
X299864Y258691D02*
X299380Y259659D01*
X298412Y260626D01*
X297445Y261110D01*
X295510D01*
X294543Y260626D01*
X293575Y259659D01*
X293092Y258691D01*
X292608Y257240D01*
Y254822D01*
X293092Y253370D01*
X293575Y252403D01*
X294543Y251436D01*
X295510Y250952D01*
X297445D01*
X298412Y251436D01*
X299380Y252403D01*
X299864Y253370D01*
X303201Y258691D02*
Y259175D01*
X303685Y260142D01*
X304169Y260626D01*
X305136Y261110D01*
X307071D01*
X308038Y260626D01*
X308522Y260142D01*
X309006Y259175D01*
Y258208D01*
X308522Y257240D01*
X307554Y255789D01*
X302717Y250952D01*
X309489D01*
X179722Y61603D02*
X179238Y62571D01*
X178270Y63538D01*
X177303Y64022D01*
X175368D01*
X174401Y63538D01*
X173433Y62571D01*
X172950Y61603D01*
X172466Y60152D01*
Y57734D01*
X172950Y56283D01*
X173433Y55315D01*
X174401Y54348D01*
X175368Y53864D01*
X177303D01*
X178270Y54348D01*
X179238Y55315D01*
X179722Y56283D01*
Y57734D01*
X177303D02*
X179722D01*
X182043Y64022D02*
Y53864D01*
Y64022D02*
X188815Y53864D01*
Y64022D02*
Y53864D01*
X191621Y64022D02*
Y53864D01*
Y64022D02*
X195007D01*
X196458Y63538D01*
X197425Y62571D01*
X197909Y61603D01*
X198393Y60152D01*
Y57734D01*
X197909Y56283D01*
X197425Y55315D01*
X196458Y54348D01*
X195007Y53864D01*
X191621D01*
X88964Y214312D02*
Y204154D01*
X94768D01*
X95881Y212377D02*
X96848Y212861D01*
X98300Y214312D01*
Y204154D01*
X341630Y295159D02*
X345983D01*
X347435Y295643D01*
X347918Y296126D01*
X348402Y297094D01*
Y298545D01*
X347918Y299512D01*
X347435Y299996D01*
X345983Y300480D01*
X341630D01*
Y290322D01*
X350675Y300480D02*
X353094Y290322D01*
X355512Y300480D02*
X353094Y290322D01*
X355512Y300480D02*
X357931Y290322D01*
X360349Y300480D02*
X357931Y290322D01*
X362381Y300480D02*
Y290322D01*
Y300480D02*
X366251Y290322D01*
X370120Y300480D02*
X366251Y290322D01*
X370120Y300480D02*
Y290322D01*
X223520Y177544D02*
Y170288D01*
X224004Y168837D01*
X224971Y167870D01*
X226422Y167386D01*
X227390D01*
X228841Y167870D01*
X229808Y168837D01*
X230292Y170288D01*
Y177544D01*
X233097Y175609D02*
X234065Y176093D01*
X235516Y177544D01*
Y167386D01*
X136398Y315466D02*
X140268Y305308D01*
X144137Y315466D02*
X140268Y305308D01*
X152699Y313047D02*
X152215Y314015D01*
X151248Y314982D01*
X150280Y315466D01*
X148345D01*
X147378Y314982D01*
X146411Y314015D01*
X145927Y313047D01*
X145443Y311596D01*
Y309178D01*
X145927Y307726D01*
X146411Y306759D01*
X147378Y305792D01*
X148345Y305308D01*
X150280D01*
X151248Y305792D01*
X152215Y306759D01*
X152699Y307726D01*
X162808Y313047D02*
X162325Y314015D01*
X161357Y314982D01*
X160390Y315466D01*
X158455D01*
X157488Y314982D01*
X156520Y314015D01*
X156037Y313047D01*
X155553Y311596D01*
Y309178D01*
X156037Y307726D01*
X156520Y306759D01*
X157488Y305792D01*
X158455Y305308D01*
X160390D01*
X161357Y305792D01*
X162325Y306759D01*
X162808Y307726D01*
X14224Y63498D02*
X18094Y53340D01*
X21963Y63498D02*
X18094Y53340D01*
X26172Y63498D02*
X25204Y63014D01*
X24237Y62047D01*
X23753Y61079D01*
X23269Y59628D01*
Y57210D01*
X23753Y55759D01*
X24237Y54791D01*
X25204Y53824D01*
X26172Y53340D01*
X28106D01*
X29074Y53824D01*
X30041Y54791D01*
X30525Y55759D01*
X31009Y57210D01*
Y59628D01*
X30525Y61079D01*
X30041Y62047D01*
X29074Y63014D01*
X28106Y63498D01*
X26172D01*
X33379D02*
Y56242D01*
X33863Y54791D01*
X34830Y53824D01*
X36281Y53340D01*
X37248D01*
X38700Y53824D01*
X39667Y54791D01*
X40151Y56242D01*
Y63498D01*
X46342D02*
Y53340D01*
X42956Y63498D02*
X49728D01*
D28*
X122762Y275670D02*
Y290402D01*
Y275670D02*
X160100D01*
Y290402D01*
X122762D02*
X160100D01*
X161624D01*
X161370Y290148D02*
X161624Y290402D01*
X161370Y275924D02*
Y290148D01*
X161116Y275670D02*
X161370Y275924D01*
X160100Y275670D02*
X161116D01*
X161624Y276178D02*
Y290402D01*
X160100Y275670D02*
X161624D01*
Y281004D01*
Y275670D02*
X162894Y276940D01*
Y289132D01*
X161624Y290402D02*
X162894Y289132D01*
D29*
X211328Y46985D02*
Y30988D01*
Y46985D02*
X218184D01*
X220469Y46223D01*
X221231Y45461D01*
X221992Y43938D01*
Y42414D01*
X221231Y40891D01*
X220469Y40129D01*
X218184Y39367D01*
X211328D02*
X218184D01*
X220469Y38605D01*
X221231Y37844D01*
X221992Y36320D01*
Y34035D01*
X221231Y32511D01*
X220469Y31750D01*
X218184Y30988D01*
X211328D01*
X225572Y46985D02*
Y30988D01*
Y46985D02*
X230905D01*
X233190Y46223D01*
X234713Y44699D01*
X235475Y43176D01*
X236237Y40891D01*
Y37082D01*
X235475Y34797D01*
X234713Y33273D01*
X233190Y31750D01*
X230905Y30988D01*
X225572D01*
X249720Y41652D02*
X248958Y39367D01*
X247435Y37844D01*
X245149Y37082D01*
X244387D01*
X242102Y37844D01*
X240579Y39367D01*
X239817Y41652D01*
Y42414D01*
X240579Y44699D01*
X242102Y46223D01*
X244387Y46985D01*
X245149D01*
X247435Y46223D01*
X248958Y44699D01*
X249720Y41652D01*
Y37844D01*
X248958Y34035D01*
X247435Y31750D01*
X245149Y30988D01*
X243626D01*
X241341Y31750D01*
X240579Y33273D01*
X254823Y43176D02*
Y43938D01*
X255585Y45461D01*
X256347Y46223D01*
X257870Y46985D01*
X260917D01*
X262441Y46223D01*
X263202Y45461D01*
X263964Y43938D01*
Y42414D01*
X263202Y40891D01*
X261679Y38605D01*
X254062Y30988D01*
X264726D01*
X269068Y43176D02*
Y43938D01*
X269830Y45461D01*
X270591Y46223D01*
X272115Y46985D01*
X275162D01*
X276685Y46223D01*
X277447Y45461D01*
X278209Y43938D01*
Y42414D01*
X277447Y40891D01*
X275924Y38605D01*
X268306Y30988D01*
X278971D01*
X293215Y46985D02*
X285598Y30988D01*
X282551Y46985D02*
X293215D01*
X296795D02*
Y30988D01*
Y46985D02*
X306698D01*
X296795Y39367D02*
X302889D01*
X308526Y25656D02*
X320714D01*
X334958Y30988D02*
X328865Y46985D01*
X322771Y30988D01*
X325056Y36320D02*
X332673D01*
X338691Y43938D02*
X340215Y44699D01*
X342500Y46985D01*
Y30988D01*
M02*
