%FSLAX44Y44*%
%MOMM*%
G71*
G01*
G75*
G04 Layer_Physical_Order=1*
G04 Layer_Color=255*
%ADD10C,0.6000*%
%ADD11C,0.2540*%
%ADD12R,1.1000X0.7000*%
%ADD13R,1.0000X1.8000*%
%ADD14R,1.0000X1.8000*%
%ADD15R,0.7000X1.1000*%
%ADD16R,1.9000X2.5000*%
%ADD17R,1.8000X1.0000*%
%ADD18R,1.8000X1.0000*%
%ADD19R,2.4000X5.5000*%
%ADD20R,2.0000X0.6500*%
%ADD21R,2.0000X1.1000*%
%ADD22R,0.8000X1.1000*%
%ADD23C,0.4000*%
%ADD24C,1.0000*%
%ADD25C,0.2000*%
%ADD26C,3.5000*%
D10*
X330172Y235176D02*
G03*
X341862Y263398I-28222J28222D01*
G01*
X340415Y245419D02*
G03*
X347862Y263398I-17979J17979D01*
G01*
X356362Y248898D02*
G03*
X335078Y240082I0J-30100D01*
G01*
X154004Y250698D02*
X156290Y252984D01*
X256108Y201010D02*
X362966D01*
X288530Y145448D02*
Y167292D01*
X344646Y186010D02*
X364966D01*
X344646Y169292D02*
Y186010D01*
X303036Y169292D02*
X322072D01*
X256108Y188310D02*
X267512D01*
X288530Y167292D01*
X267766Y188056D02*
X271030Y184792D01*
X250444Y188056D02*
X267766D01*
X201944Y226574D02*
Y249016D01*
X169432Y248666D02*
X186690D01*
X308706Y213710D02*
X356362Y261366D01*
X256108Y213710D02*
X308706D01*
X356362Y261366D02*
Y263398D01*
X153690Y258732D02*
Y291786D01*
X202108Y213964D02*
X206248D01*
X154432Y230124D02*
X170846Y213710D01*
X151210Y256286D02*
Y355092D01*
X152988Y258732D02*
Y300228D01*
X140796Y270764D02*
Y352806D01*
X139780Y273558D02*
Y350266D01*
X149272Y274828D02*
X151210D01*
X155528Y254254D02*
Y350266D01*
X145368Y253492D02*
Y353314D01*
X154432Y230124D02*
Y281912D01*
X148082Y228092D02*
X162464Y213710D01*
X151130Y230378D02*
Y280416D01*
Y230378D02*
X167640Y213868D01*
X159004Y230124D02*
X171011Y218117D01*
X154766Y253492D02*
X156290Y255016D01*
X159004Y233426D02*
X175150Y217280D01*
X143510Y229108D02*
X158908Y213710D01*
X148082Y224536D02*
Y285496D01*
X156290Y252984D02*
Y350266D01*
X158908Y213710D02*
X202108D01*
X127604Y201010D02*
X202108D01*
X113284Y186690D02*
X127604Y201010D01*
X156290Y232838D02*
Y255270D01*
X139780Y228012D02*
Y316484D01*
Y228012D02*
X154082Y213710D01*
X187452D01*
X143510Y229108D02*
Y261286D01*
X153416Y244952D02*
X184658Y213710D01*
X138272Y201010D02*
X148590D01*
X119380Y182118D02*
X138272Y201010D01*
X131064Y199644D02*
Y201010D01*
X115062Y183642D02*
X131064Y199644D01*
X145638Y201010D02*
X148082D01*
X129794Y185166D02*
X145638Y201010D01*
X129794Y156210D02*
Y185166D01*
X111094Y201010D02*
X127604D01*
X106426Y196342D02*
X111094Y201010D01*
X106426Y174244D02*
Y196342D01*
X109420Y199336D02*
X124533D01*
X133604Y167894D02*
Y192532D01*
Y167894D02*
X140208Y161290D01*
X66898Y197262D02*
X87980D01*
X66898Y112872D02*
Y197262D01*
X49276Y95250D02*
X66898Y112872D01*
X87980Y73914D02*
Y197262D01*
Y73756D02*
Y77724D01*
X30892Y73756D02*
X87980D01*
X344646Y136874D02*
Y154292D01*
X104956Y54864D02*
X262636D01*
X82826Y76994D02*
X104956Y54864D01*
X262636D02*
X344646Y136874D01*
X85154Y77470D02*
Y158486D01*
X256108Y226410D02*
X300592D01*
X148082Y279146D02*
Y340614D01*
D11*
X58552Y199956D02*
G03*
X58128Y197262I8346J-2694D01*
G01*
X58552Y199956D02*
G03*
X58128Y197262I8346J-2694D01*
G01*
X59960Y202626D02*
G03*
X58552Y199956I6938J-5364D01*
G01*
X59960Y202626D02*
G03*
X58552Y199956I6938J-5364D01*
G01*
X62730Y204978D02*
G03*
X59960Y202626I4169J-7716D01*
G01*
X62730Y204978D02*
G03*
X59960Y202626I4169J-7716D01*
G01*
X40900Y352320D02*
G03*
X47553Y358897I-10900J17680D01*
G01*
X172114Y341376D02*
G03*
X131010Y326428I-23270J0D01*
G01*
X235104Y165100D02*
G03*
X237608Y159067I8520J0D01*
G01*
X235104Y165100D02*
G03*
X237600Y159075I8520J0D01*
G01*
Y240212D02*
G03*
X235104Y234188I6025J-6025D01*
G01*
X237608Y240221D02*
G03*
X235104Y234188I6016J-6033D01*
G01*
X165060Y324687D02*
G03*
X172114Y341376I-16216J16689D01*
G01*
X249212Y248296D02*
G03*
X243179Y245792I0J-8520D01*
G01*
X249212Y248296D02*
G03*
X243188Y245800I0J-8520D01*
G01*
X201930Y190246D02*
X202692Y189484D01*
X193294Y179070D02*
Y190246D01*
X62730Y204978D02*
X67555Y209804D01*
X245872Y247614D02*
X284262Y286004D01*
X8270Y112268D02*
X32766D01*
X8270D02*
X53891D01*
X8270Y116332D02*
X57955D01*
X8270Y114300D02*
X55923D01*
X8270Y120396D02*
X58128D01*
X8270Y118364D02*
X58128D01*
X8270Y126492D02*
X58128D01*
X8270Y122428D02*
X58128D01*
X8270Y124460D02*
X58128D01*
X8270Y140716D02*
X58128D01*
X8270Y138684D02*
X58128D01*
X8270Y146812D02*
X58128D01*
X8270Y142748D02*
X58128D01*
X8270Y144780D02*
X58128D01*
X8270Y130556D02*
X58128D01*
X8270Y128524D02*
X58128D01*
X8270Y136652D02*
X58128D01*
X8270Y132588D02*
X58128D01*
X8270Y134620D02*
X58128D01*
X32512Y112186D02*
X53809D01*
X58128Y116505D01*
X8270Y152908D02*
X58128D01*
X8270Y148844D02*
X58128D01*
X8270Y150876D02*
X58128D01*
X8270Y156972D02*
X58128D01*
X8270Y154940D02*
X58128D01*
X8270Y163068D02*
X58128D01*
X8270Y159004D02*
X58128D01*
X8270Y161036D02*
X58128D01*
X8270Y177292D02*
X58128D01*
X8270Y175260D02*
X58128D01*
X8270Y183388D02*
X58128D01*
X8270Y179324D02*
X58128D01*
X8270Y181356D02*
X58128D01*
X8270Y167132D02*
X58128D01*
X8270Y165100D02*
X58128D01*
X8270Y173228D02*
X58128D01*
X8270Y169164D02*
X58128D01*
X8270Y171196D02*
X58128D01*
X12192Y112268D02*
Y345390D01*
X14224Y112268D02*
Y345390D01*
X8270Y112268D02*
Y345390D01*
X10160Y112268D02*
Y345390D01*
X24384Y112268D02*
Y345390D01*
X26416Y112268D02*
Y345390D01*
X16256Y112268D02*
Y345390D01*
X22352Y112268D02*
Y345390D01*
X18288Y112268D02*
Y345390D01*
X8270Y187452D02*
X58128D01*
X8270Y185420D02*
X58128D01*
X8270Y189484D02*
X58128D01*
X20320Y112268D02*
Y345390D01*
X8270Y191516D02*
X58128D01*
X8270Y195580D02*
X58128D01*
X8270Y193548D02*
X58128D01*
X8270Y201676D02*
X58552D01*
X8270Y197612D02*
X58135D01*
X8270Y199644D02*
X58458D01*
X34544Y112186D02*
Y345964D01*
X36576Y112186D02*
Y347996D01*
X38608Y112186D02*
Y350028D01*
X42672Y112186D02*
Y353544D01*
X40640Y112186D02*
Y352060D01*
X44704Y112186D02*
Y355331D01*
X46736Y112186D02*
Y357700D01*
X48768Y112186D02*
Y360112D01*
X52832Y112186D02*
Y391730D01*
X50800Y112186D02*
Y362144D01*
X28448Y112268D02*
Y345390D01*
X30480Y112268D02*
Y345390D01*
X32512Y112268D02*
Y345390D01*
X54864Y113241D02*
Y391730D01*
X56896Y115273D02*
Y391730D01*
X58128Y116505D02*
Y197262D01*
X58552Y199956D02*
Y202626D01*
X58928Y200921D02*
Y202626D01*
X96750Y110236D02*
X263652D01*
X96750Y108204D02*
X263652D01*
X96750Y114300D02*
X263652D01*
X96750Y112268D02*
X263652D01*
X96750Y100076D02*
X263652D01*
X96750Y98044D02*
X263652D01*
X96750Y106172D02*
X263652D01*
X96750Y102108D02*
X263652D01*
X96750Y104140D02*
X263652D01*
X96750Y128524D02*
X263652D01*
X96750Y126492D02*
X263652D01*
X96750Y134620D02*
X262055D01*
X96750Y130556D02*
X263652D01*
X96750Y132588D02*
X263652D01*
X96750Y118364D02*
X263652D01*
X96750Y116332D02*
X263652D01*
X96750Y124460D02*
X263652D01*
X96750Y120396D02*
X263652D01*
X96750Y122428D02*
X263652D01*
X106691Y65532D02*
X260901D01*
X108589Y63634D02*
X259003D01*
X96750Y75473D02*
Y77724D01*
Y75473D02*
X108589Y63634D01*
X96750Y75473D02*
Y77724D01*
X102627Y69596D02*
X263652D01*
X104659Y67564D02*
X262933D01*
X96750Y75692D02*
X263652D01*
X100595Y71628D02*
X263652D01*
X98563Y73660D02*
X263652D01*
X96750Y89916D02*
X263652D01*
X96750Y87884D02*
X263652D01*
X96750Y96012D02*
X263652D01*
X96750Y91948D02*
X263652D01*
X96750Y93980D02*
X263652D01*
X96750Y79756D02*
X263652D01*
X96750Y77724D02*
X263652D01*
X96750Y85852D02*
X263652D01*
X96750Y81788D02*
X263652D01*
X96750Y83820D02*
X263652D01*
X103632Y68591D02*
Y136086D01*
X105664Y66559D02*
Y136086D01*
X97536Y74687D02*
Y136086D01*
X101600Y70623D02*
Y136086D01*
X99568Y72655D02*
Y136086D01*
X113792Y63634D02*
Y136086D01*
X115824Y63634D02*
Y136086D01*
X107696Y64527D02*
Y136086D01*
X111760Y63634D02*
Y136086D01*
X109728Y63634D02*
Y136086D01*
X58552Y201676D02*
X59320D01*
X97552Y136086D02*
X110490D01*
X133092D01*
X96750Y77724D02*
Y136086D01*
X97552D02*
X110490D01*
X96750D02*
X97552D01*
X123952Y63634D02*
Y136086D01*
X125984Y63634D02*
Y136086D01*
X117856Y63634D02*
Y136086D01*
X121920Y63634D02*
Y136086D01*
X119888Y63634D02*
Y136086D01*
X128016Y63634D02*
Y136086D01*
X130048Y63634D02*
Y136086D01*
X132080Y63634D02*
Y136086D01*
X136144Y63634D02*
Y136296D01*
X134112Y63634D02*
Y136296D01*
X138176Y63634D02*
Y135606D01*
X140208Y63634D02*
Y135606D01*
X133092Y136296D02*
X137744D01*
X142240Y63634D02*
Y135606D01*
X144018Y186987D02*
X149021Y191990D01*
X137744Y135606D02*
X168284D01*
X144018Y172146D02*
X168284D01*
X144018Y179324D02*
X235104D01*
X144018Y173228D02*
X235104D01*
X144018Y175260D02*
X235104D01*
X8270Y205740D02*
X62248D01*
X8270Y203708D02*
X60951D01*
X8270Y228092D02*
X131010D01*
X8270Y207772D02*
X64280D01*
X8270Y232156D02*
X131010D01*
X8270Y230124D02*
X131010D01*
X8270Y238252D02*
X131010D01*
X8270Y234188D02*
X131010D01*
X8270Y236220D02*
X131010D01*
X8270Y337820D02*
X125847D01*
X8270Y331724D02*
X127670D01*
X8270Y345390D02*
X33970D01*
X8270Y339852D02*
X125624D01*
X8270Y341884D02*
X125580D01*
X8270Y242316D02*
X131010D01*
X8270Y240284D02*
X131010D01*
X8270Y329692D02*
X128720D01*
X8270Y244348D02*
X131010D01*
X8270Y327660D02*
X130046D01*
X58552Y202626D02*
X59960D01*
X61486Y204978D02*
X62730D01*
X61486D02*
X66288Y209780D01*
X111094D02*
X120142D01*
X66288D02*
X111094D01*
X120396D02*
X127604D01*
X131010Y228012D02*
Y234188D01*
X125984Y209780D02*
Y337027D01*
X130048Y209780D02*
Y327657D01*
X128016Y209780D02*
Y330999D01*
X8270Y343916D02*
X125713D01*
X8270Y335788D02*
X126255D01*
X33970Y345390D02*
X40900Y352320D01*
X34528Y345948D02*
X126028D01*
X36560Y347980D02*
X126531D01*
X8270Y333756D02*
X126857D01*
X131010Y234188D02*
Y273558D01*
X38592Y350012D02*
X127236D01*
X40624Y352044D02*
X128163D01*
X43335Y354076D02*
X129345D01*
X65024Y208516D02*
Y391730D01*
X67056Y209780D02*
Y391730D01*
X58928Y202626D02*
Y391730D01*
X60960Y203716D02*
Y391730D01*
X62992Y206484D02*
Y391730D01*
X83312Y209780D02*
Y391730D01*
X85344Y209780D02*
Y391730D01*
X69088Y209780D02*
Y391730D01*
X73152Y209780D02*
Y391730D01*
X71120Y209780D02*
Y391730D01*
X47553Y358897D02*
X51816Y363160D01*
Y391730D01*
X77216Y209780D02*
Y391730D01*
X75184Y209780D02*
Y391730D01*
X45440Y356108D02*
X130831D01*
X89408Y209780D02*
Y391730D01*
X79248Y209780D02*
Y391730D01*
X87376Y209780D02*
Y391730D01*
X81280Y209780D02*
Y391730D01*
X97536Y209780D02*
Y391730D01*
X99568Y209780D02*
Y391730D01*
X91440Y209780D02*
Y391730D01*
X95504Y209780D02*
Y391730D01*
X93472Y209780D02*
Y391730D01*
X107696Y209780D02*
Y391730D01*
X109728Y209780D02*
Y391730D01*
X101600Y209780D02*
Y391730D01*
X105664Y209780D02*
Y391730D01*
X103632Y209780D02*
Y391730D01*
X117856Y209780D02*
Y391730D01*
X119888Y209780D02*
Y391730D01*
X111760Y209780D02*
Y391730D01*
X115824Y209780D02*
Y391730D01*
X113792Y209780D02*
Y391730D01*
X128016Y351753D02*
Y391730D01*
X130048Y355095D02*
Y391730D01*
X121920Y209780D02*
Y391730D01*
X123952Y209780D02*
Y391730D01*
X125984Y345725D02*
Y391730D01*
X8270Y221996D02*
X131010D01*
X8270Y219964D02*
X131010D01*
X8270Y226060D02*
X131010D01*
X8270Y224028D02*
X131010D01*
X8270Y211836D02*
X131010D01*
X8270Y209804D02*
X131010D01*
X8270Y217932D02*
X131010D01*
X8270Y213868D02*
X131010D01*
X8270Y215900D02*
X131010D01*
X8270Y258572D02*
X131010D01*
X8270Y256540D02*
X131010D01*
X8270Y264668D02*
X131010D01*
X8270Y260604D02*
X131010D01*
X8270Y262636D02*
X131010D01*
X8270Y248412D02*
X131010D01*
X8270Y246380D02*
X131010D01*
X8270Y254508D02*
X131010D01*
X8270Y250444D02*
X131010D01*
X8270Y252476D02*
X131010D01*
X8270Y274828D02*
X131010D01*
X8270Y272796D02*
X131010D01*
X8270Y280924D02*
X131010D01*
X8270Y276860D02*
X131010D01*
X8270Y278892D02*
X131010D01*
X127604Y209780D02*
X131010D01*
Y228012D01*
X8270Y270764D02*
X131010D01*
X8270Y266700D02*
X131010D01*
X8270Y268732D02*
X131010D01*
X8270Y295148D02*
X131010D01*
X8270Y293116D02*
X131010D01*
X8270Y301244D02*
X131010D01*
X8270Y297180D02*
X131010D01*
X8270Y299212D02*
X131010D01*
X8270Y284988D02*
X131010D01*
X8270Y282956D02*
X131010D01*
X8270Y291084D02*
X131010D01*
X8270Y287020D02*
X131010D01*
X8270Y289052D02*
X131010D01*
X8270Y315468D02*
X131010D01*
X8270Y313436D02*
X131010D01*
X8270Y321564D02*
X131010D01*
X8270Y317500D02*
X131010D01*
X8270Y319532D02*
X131010D01*
X8270Y305308D02*
X131010D01*
X8270Y303276D02*
X131010D01*
X8270Y311404D02*
X131010D01*
X8270Y307340D02*
X131010D01*
X8270Y309372D02*
X131010D01*
X8270Y325628D02*
X131010D01*
X8270Y323596D02*
X131010D01*
X47051Y358140D02*
X132705D01*
X48828Y360172D02*
X135125D01*
X50860Y362204D02*
X138467D01*
X51816Y366268D02*
X343408D01*
X51816Y364236D02*
X144495D01*
X51816Y386588D02*
X343408D01*
X51816Y368300D02*
X343408D01*
X51816Y384556D02*
X343408D01*
X131010Y273558D02*
Y316484D01*
Y273558D02*
Y316484D01*
Y326428D01*
X132080Y357515D02*
Y391730D01*
X134112Y359389D02*
Y391730D01*
X142240Y363689D02*
Y391730D01*
X136144Y360875D02*
Y391730D01*
X138176Y362057D02*
Y391730D01*
X140208Y362984D02*
Y391730D01*
X51816Y382524D02*
X343408D01*
X51816Y380492D02*
X343408D01*
X51816Y391730D02*
X343408D01*
X51816Y388620D02*
X343408D01*
X51816Y390652D02*
X343408D01*
X51816Y372364D02*
X343408D01*
X51816Y370332D02*
X343408D01*
X51816Y378460D02*
X343408D01*
X51816Y374396D02*
X343408D01*
X51816Y376428D02*
X343408D01*
X148336Y63634D02*
Y135606D01*
X150368Y63634D02*
Y135606D01*
X144272Y63634D02*
Y135606D01*
X146304Y63634D02*
Y135606D01*
X158496Y63634D02*
Y135606D01*
X160528Y63634D02*
Y135606D01*
X152400Y63634D02*
Y135606D01*
X156464Y63634D02*
Y135606D01*
X154432Y63634D02*
Y135606D01*
X144018Y172146D02*
Y186987D01*
X144272Y172146D02*
Y187241D01*
X146304Y172146D02*
Y189273D01*
X150368Y172146D02*
Y191990D01*
X148336Y172146D02*
Y191305D01*
X149021Y191990D02*
X186338D01*
X158496Y172146D02*
Y191990D01*
X152400Y172146D02*
Y191990D01*
X156464Y172146D02*
Y191990D01*
X154432Y172146D02*
Y191990D01*
X162560Y63634D02*
Y135606D01*
X164592Y63634D02*
Y135606D01*
X166624Y63634D02*
Y135606D01*
X170688Y63634D02*
Y191990D01*
X168656Y63634D02*
Y191990D01*
X186944Y63634D02*
Y191990D01*
X188976Y63634D02*
Y191990D01*
X172720Y63634D02*
Y191990D01*
X176784Y63634D02*
Y191990D01*
X174752Y63634D02*
Y191990D01*
X166624Y172146D02*
Y191990D01*
X168284Y135606D02*
Y172146D01*
X160528D02*
Y191990D01*
X164592Y172146D02*
Y191990D01*
X162560Y172146D02*
Y191990D01*
X184912Y63634D02*
Y191990D01*
X191008Y63634D02*
Y191990D01*
X178816Y63634D02*
Y191990D01*
X182880Y63634D02*
Y191990D01*
X180848Y63634D02*
Y191990D01*
X197104Y63634D02*
Y191990D01*
X199136Y63634D02*
Y191990D01*
X193040Y63634D02*
Y191990D01*
X195072Y63634D02*
Y191990D01*
X207264Y63634D02*
Y191990D01*
X211328Y63634D02*
Y191990D01*
X201168Y63634D02*
Y191990D01*
X205232Y63634D02*
Y191990D01*
X203200Y63634D02*
Y191990D01*
X186338D02*
X192024D01*
X186338D02*
X192024D01*
X209296Y63634D02*
Y191990D01*
X211214Y237746D02*
Y247904D01*
Y237746D02*
Y247904D01*
X192024Y191990D02*
X217878D01*
X211214Y235430D02*
X217878D01*
X211214D02*
Y237746D01*
X213360Y235430D02*
Y391730D01*
X211328Y235430D02*
Y391730D01*
X213360Y63634D02*
Y191990D01*
X215392Y63634D02*
Y191990D01*
X217424Y63634D02*
Y191990D01*
X221488Y63634D02*
Y391730D01*
X219456Y63634D02*
Y391730D01*
X231648Y63634D02*
Y391730D01*
X233680Y63634D02*
Y391730D01*
X223520Y63634D02*
Y391730D01*
X229616Y63634D02*
Y391730D01*
X225552Y63634D02*
Y391730D01*
X217878Y204690D02*
Y210030D01*
Y191990D02*
Y204690D01*
X215392Y235430D02*
Y391730D01*
X217878Y204690D02*
Y210030D01*
X217424Y235430D02*
Y391730D01*
X217878Y217390D02*
Y222730D01*
Y210030D02*
Y217390D01*
Y222730D01*
X227584Y63634D02*
Y391730D01*
X217878Y222730D02*
Y235430D01*
X168284Y148844D02*
X247831D01*
X168284Y146812D02*
X249863D01*
X168284Y152908D02*
X243767D01*
X168284Y150876D02*
X245799D01*
X168284Y138684D02*
X257991D01*
X168284Y136652D02*
X260023D01*
X168284Y144780D02*
X251895D01*
X168284Y140716D02*
X255959D01*
X168284Y142748D02*
X253927D01*
X168284Y169164D02*
X235104D01*
X168284Y167132D02*
X235104D01*
X144018Y181356D02*
X235104D01*
X168284Y171196D02*
X235104D01*
X144018Y177292D02*
X235104D01*
X168284Y156972D02*
X239703D01*
X168284Y154940D02*
X241735D01*
X168284Y165100D02*
X235104D01*
X168284Y159004D02*
X237671D01*
X168284Y161036D02*
X236136D01*
X241808Y63634D02*
Y154867D01*
X243840Y63634D02*
Y152835D01*
X235712Y63634D02*
Y161939D01*
X239776Y63634D02*
Y156899D01*
X237744Y63634D02*
Y158931D01*
X258064Y63634D02*
Y138611D01*
X259003Y63634D02*
X263652Y68283D01*
X245872Y63634D02*
Y150803D01*
X249936Y63634D02*
Y146739D01*
X247904Y63634D02*
Y148771D01*
X251968Y63634D02*
Y144707D01*
X254000Y63634D02*
Y142675D01*
X168284Y163068D02*
X235350D01*
X262128Y66759D02*
Y134547D01*
X263652Y68283D02*
Y133023D01*
X237608Y159067D02*
X263652Y133023D01*
X256032Y63634D02*
Y140643D01*
X260096Y64727D02*
Y136579D01*
X217878Y195580D02*
X235104D01*
X217878Y193548D02*
X235104D01*
X217878Y205740D02*
X235104D01*
X217878Y197612D02*
X235104D01*
X217878Y203708D02*
X235104D01*
X144018Y185420D02*
X235104D01*
X144018Y183388D02*
X235104D01*
X144483Y187452D02*
X235104D01*
X146515Y189484D02*
X235104D01*
X148547Y191516D02*
X235104D01*
X217878Y209804D02*
X235104D01*
X217878Y207772D02*
X235104D01*
X217878Y215900D02*
X235104D01*
X217878Y211836D02*
X235104D01*
X217878Y213868D02*
X235104D01*
X211214Y238252D02*
X236136D01*
X211214Y236220D02*
X235350D01*
X211214Y244348D02*
X241735D01*
X211214Y240284D02*
X237671D01*
X211214Y242316D02*
X239703D01*
X217878Y221996D02*
X235104D01*
X217878Y219964D02*
X235104D01*
X217878Y228092D02*
X235104D01*
X217878Y224028D02*
X235104D01*
X217878Y226060D02*
X235104D01*
X217878Y201676D02*
X235104D01*
X217878Y199644D02*
X235104D01*
X217878Y217932D02*
X235104D01*
Y165100D02*
Y206248D01*
Y234188D01*
X217878Y232156D02*
X235104D01*
X217878Y230124D02*
X235104D01*
X217878Y234188D02*
X235104D01*
X235712Y237349D02*
Y391730D01*
X237608Y240221D02*
X243179Y245792D01*
X237744Y240357D02*
Y391730D01*
X239776Y242389D02*
Y391730D01*
X241808Y244421D02*
Y391730D01*
X165060Y259936D02*
Y324687D01*
X166624Y259936D02*
Y326364D01*
X168656Y259936D02*
Y329170D01*
X170688Y259936D02*
Y333355D01*
X165060Y260604D02*
X263652D01*
X165060Y259936D02*
X177674D01*
X165060Y262636D02*
X263652D01*
X174752Y259936D02*
Y391730D01*
X165060Y264668D02*
X263652D01*
X165060Y278892D02*
X263652D01*
X165060Y276860D02*
X263652D01*
X165060Y280924D02*
X263652D01*
X170688Y349397D02*
Y391730D01*
X165060Y268732D02*
X263652D01*
X165060Y266700D02*
X263652D01*
X165060Y274828D02*
X263652D01*
X165060Y270764D02*
X263652D01*
X165060Y272796D02*
X263652D01*
X211214Y246380D02*
X243829D01*
X211214Y247904D02*
Y260286D01*
X263652Y248296D02*
Y282702D01*
X211214Y248412D02*
X263652D01*
X249212Y248296D02*
X263652D01*
X211214Y254508D02*
X263652D01*
X211214Y250444D02*
X263652D01*
X211214Y252476D02*
X263652D01*
X177674Y260286D02*
X192674D01*
X177674Y259936D02*
X178702D01*
X176784D02*
Y391730D01*
X180848Y260286D02*
Y391730D01*
X178816Y260286D02*
Y391730D01*
X211214Y258572D02*
X263652D01*
X211214Y256540D02*
X263652D01*
X192674Y260286D02*
X196214D01*
X211214D01*
X192674D02*
X196214D01*
X172720Y259936D02*
Y391730D01*
X182880Y260286D02*
Y391730D01*
X164592Y358508D02*
Y391730D01*
X168656Y353582D02*
Y391730D01*
X166624Y356388D02*
Y391730D01*
X191008Y260286D02*
Y391730D01*
X193040Y260286D02*
Y391730D01*
X184912Y260286D02*
Y391730D01*
X188976Y260286D02*
Y391730D01*
X186944Y260286D02*
Y391730D01*
X150368Y364596D02*
Y391730D01*
X152400Y364373D02*
Y391730D01*
X144272Y364192D02*
Y391730D01*
X146304Y364507D02*
Y391730D01*
X148336Y364641D02*
Y391730D01*
X160528Y361500D02*
Y391730D01*
X162560Y360174D02*
Y391730D01*
X154432Y363965D02*
Y391730D01*
X158496Y362550D02*
Y391730D01*
X156464Y363363D02*
Y391730D01*
X249936Y248296D02*
Y391730D01*
X251968Y248296D02*
Y391730D01*
X243840Y246389D02*
Y391730D01*
X245872Y247614D02*
Y391730D01*
X247904Y248195D02*
Y391730D01*
X260096Y248296D02*
Y391730D01*
X262128Y248296D02*
Y391730D01*
X254000Y248296D02*
Y391730D01*
X258064Y248296D02*
Y391730D01*
X256032Y248296D02*
Y391730D01*
X201168Y260286D02*
Y391730D01*
X203200Y260286D02*
Y391730D01*
X195072Y260286D02*
Y391730D01*
X199136Y260286D02*
Y391730D01*
X197104Y260286D02*
Y391730D01*
X264160Y283464D02*
Y391730D01*
X266192Y283464D02*
Y391730D01*
X205232Y260286D02*
Y391730D01*
X209296Y260286D02*
Y391730D01*
X207264Y260286D02*
Y391730D01*
X165060Y299212D02*
X343408D01*
X165060Y295148D02*
X343408D01*
X165060Y303276D02*
X343408D01*
X165060Y301244D02*
X343408D01*
X165060Y287020D02*
X343408D01*
X165060Y284988D02*
X343408D01*
X165060Y293116D02*
X343408D01*
X165060Y289052D02*
X343408D01*
X165060Y291084D02*
X343408D01*
X165060Y317500D02*
X343408D01*
X165060Y315468D02*
X343408D01*
X162563Y360172D02*
X343408D01*
X165060Y319532D02*
X343408D01*
X164983Y358140D02*
X343408D01*
X165060Y307340D02*
X343408D01*
X165060Y305308D02*
X343408D01*
X165060Y313436D02*
X343408D01*
X165060Y309372D02*
X343408D01*
X165060Y311404D02*
X343408D01*
X167642Y327660D02*
X343408D01*
X168968Y329692D02*
X343408D01*
X170018Y331724D02*
X343408D01*
X170831Y333756D02*
X343408D01*
X171433Y335788D02*
X343408D01*
X165060Y297180D02*
X343408D01*
X263906Y283464D02*
X343408D01*
X165060Y321564D02*
X343408D01*
X165060Y323596D02*
X343408D01*
X165976Y325628D02*
X343408D01*
X170452Y350012D02*
X343408D01*
X171157Y347980D02*
X343408D01*
X166857Y356108D02*
X343408D01*
X169525Y352044D02*
X343408D01*
X168343Y354076D02*
X343408D01*
X171841Y337820D02*
X343408D01*
X172064Y339852D02*
X343408D01*
X171660Y345948D02*
X343408D01*
X172108Y341884D02*
X343408D01*
X171975Y343916D02*
X343408D01*
X290576Y283464D02*
Y391730D01*
X292608Y283464D02*
Y391730D01*
X284480Y283464D02*
Y391730D01*
X288544Y283464D02*
Y391730D01*
X286512Y283464D02*
Y391730D01*
X300736Y283464D02*
Y391730D01*
X302768Y283464D02*
Y391730D01*
X294640Y283464D02*
Y391730D01*
X298704Y283464D02*
Y391730D01*
X296672Y283464D02*
Y391730D01*
X274320Y283464D02*
Y391730D01*
X276352Y283464D02*
Y391730D01*
X268224Y283464D02*
Y391730D01*
X272288Y283464D02*
Y391730D01*
X270256Y283464D02*
Y391730D01*
X153193Y364236D02*
X343408D01*
X159221Y362204D02*
X343408D01*
X278384Y283464D02*
Y391730D01*
X282448Y283464D02*
Y391730D01*
X280416Y283464D02*
Y391730D01*
X331216Y283464D02*
Y391730D01*
X333248Y283464D02*
Y391730D01*
X325120Y283464D02*
Y391730D01*
X329184Y283464D02*
Y391730D01*
X327152Y283464D02*
Y391730D01*
X341376Y283464D02*
Y391730D01*
X343408Y283464D02*
Y391730D01*
X335280Y283464D02*
Y391730D01*
X339344Y283464D02*
Y391730D01*
X337312Y283464D02*
Y391730D01*
X310896Y283464D02*
Y391730D01*
X312928Y283464D02*
Y391730D01*
X304800Y283464D02*
Y391730D01*
X308864Y283464D02*
Y391730D01*
X306832Y283464D02*
Y391730D01*
X321056Y283464D02*
Y391730D01*
X323088Y283464D02*
Y391730D01*
X314960Y283464D02*
Y391730D01*
X319024Y283464D02*
Y391730D01*
X316992Y283464D02*
Y391730D01*
D12*
X322072Y201010D02*
D03*
Y186010D02*
D03*
X344646D02*
D03*
Y201010D02*
D03*
X364966Y186010D02*
D03*
Y201010D02*
D03*
X344646Y154292D02*
D03*
Y169292D02*
D03*
X322072D02*
D03*
Y154292D02*
D03*
X300736Y226554D02*
D03*
Y241554D02*
D03*
D13*
X84826Y111412D02*
D03*
Y79916D02*
D03*
D14*
X112826Y111412D02*
D03*
Y79916D02*
D03*
D15*
X288530Y145448D02*
D03*
X303530D02*
D03*
X288530Y167292D02*
D03*
X303530D02*
D03*
X201944Y249016D02*
D03*
X186944D02*
D03*
X154432Y248666D02*
D03*
X169432D02*
D03*
D16*
X190014Y153876D02*
D03*
X153014D02*
D03*
D17*
X163448Y215414D02*
D03*
D18*
Y187414D02*
D03*
D19*
X76322Y169356D02*
D03*
X115322D02*
D03*
D20*
X256108Y226410D02*
D03*
Y213710D02*
D03*
Y201010D02*
D03*
Y188310D02*
D03*
X202108D02*
D03*
Y201010D02*
D03*
Y213710D02*
D03*
Y226410D02*
D03*
D21*
X147908Y283036D02*
D03*
D22*
X128908D02*
D03*
D23*
X258826Y124968D02*
X267716Y133858D01*
X237236Y152400D02*
Y190246D01*
X247904Y241554D02*
X300736D01*
X241046Y234696D02*
X247904Y241554D01*
X202108Y190246D02*
X241046D01*
X329044Y154292D02*
X333248Y158496D01*
Y182118D01*
X322072Y186010D02*
X329356D01*
X333248Y182118D01*
X303530Y145448D02*
X312374Y154292D01*
X303530Y137414D02*
Y145448D01*
X299974Y133858D02*
X303530Y137414D01*
X262890Y133858D02*
X299974D01*
X241046Y155702D02*
X262890Y133858D01*
X241046Y155702D02*
Y234696D01*
X312374Y154292D02*
X329044D01*
X235104Y187706D02*
X240692D01*
D24*
X29718Y86360D02*
X82826D01*
X76264Y88774D02*
Y177928D01*
X71692Y84202D02*
X76264Y88774D01*
X29464Y92202D02*
X75692D01*
X32512Y89916D02*
X55118D01*
Y81916D02*
X73152Y99950D01*
X69152D02*
Y186818D01*
X69660Y94362D02*
X76264D01*
X53500Y86202D02*
X63660Y96362D01*
X26882Y81492D02*
X85154D01*
X27432Y99568D02*
X55880D01*
X61880Y97568D02*
X74834Y110522D01*
X146204Y147066D02*
X153014Y153876D01*
X112268Y147066D02*
X146204D01*
X112268D02*
X120904Y155702D01*
X153924D01*
X148336Y161290D02*
X153924Y155702D01*
X117856Y161290D02*
X148336D01*
X32512Y77470D02*
Y89916D01*
X82784Y78360D02*
X82826Y78318D01*
X32512Y77470D02*
X85154D01*
X31496Y77724D02*
X84594D01*
X82826Y76994D02*
Y158158D01*
X241300Y250444D02*
X241554D01*
X277622Y286512D01*
X264668D02*
X277622D01*
X242824Y264668D02*
X264668Y286512D01*
X242824Y264668D02*
Y276352D01*
X253492Y287020D01*
D25*
X0Y0D02*
X400000D01*
Y400000D01*
X0D02*
X400000D01*
X0Y0D02*
Y400000D01*
D26*
X185928Y88916D02*
D03*
X32512D02*
D03*
X148844Y341376D02*
D03*
X356362Y263398D02*
D03*
X248920Y341376D02*
D03*
M02*
